<?xml version="1.0"?>
<svg xmlns="http://www.w3.org/2000/svg" width="488" height="194" viewBox="0 0 488 194" fill-rule="nonzero">
<defs><linearGradient id="magRed" gradientUnits="userSpaceOnUse" x1="0" y1="37" x2="0" y2="161"><stop offset="0" stop-color="#FF0000"></stop><stop offset=".26" stop-color="#FA0000"></stop><stop offset=".36" stop-color="#E50000"></stop><stop offset=".47" stop-color="#CF0000"></stop><stop offset=".57" stop-color="#C00000"></stop><stop offset=".68" stop-color="#AA0000"></stop><stop offset=".78" stop-color="#980000"></stop><stop offset="1" stop-color="#980000"></stop></linearGradient><linearGradient id="magBlue" gradientUnits="userSpaceOnUse" x1="0" y1="34" x2="0" y2="161"><stop offset="0" stop-color="#000FD6"></stop><stop offset=".17" stop-color="#0932E0"></stop><stop offset=".32" stop-color="#196BEF"></stop><stop offset=".46" stop-color="#29A2FD"></stop><stop offset=".58" stop-color="#228BF7"></stop><stop offset=".79" stop-color="#0D3EE3"></stop><stop offset="1" stop-color="#031DDB"></stop></linearGradient></defs>
<g id="mag-frame"><path fill="#000000" fill-rule="evenodd" d="M34 0H454A34 34 0 0 1 488 34V160A34 34 0 0 1 454 194H34A34 34 0 0 1 0 160V34A34 34 0 0 1 34 0ZM34 16H454A18 18 0 0 1 472 34V160A18 18 0 0 1 454 178H34A18 18 0 0 1 16 160V34A18 18 0 0 1 34 16Z"></path></g>
<g id="mag-blue"><path fill="url(#magBlue)" d="M245 37H291L335 120C348 129 372 130 396 130C407 130 414 126 415 120V113H370V88H454V134C454 145 443 160 421 160H316L267 67L245 104ZM337 35H418C437 35 453 51 453 79H415C414 70 408 65 400 65H351C342 65 334 70 334 79V97H332L306 45Z"></path></g>
<g id="mag-red"><path fill="url(#magRed)" d="M34 37H90L135 114L179 37H235V111H287L270 140H228L216 161H175L198 119V73L148 161H122L71 73V161H34Z"></path></g>
</svg>